<svg xmlns="http://www.w3.org/2000/svg" xmlns:xlink="http://www.w3.org/1999/xlink" width="1080" zoomAndPan="magnify" viewBox="0 0 810 809.999993" height="1080" preserveAspectRatio="xMidYMid meet" version="1.0"><defs><clipPath id="3d49b191dd"><path d="M 0.515625 168.023438 L 809.390625 168.023438 L 809.390625 664.863281 L 0.515625 664.863281 Z M 0.515625 168.023438 " clip-rule="nonzero"/></clipPath><clipPath id="125c0a4a8f"><path d="M 340 352.863281 L 471 352.863281 L 471 554.613281 L 340 554.613281 Z M 340 352.863281 " clip-rule="nonzero"/></clipPath></defs><g clip-path="url(#3d49b191dd)"><path fill="#d9d9d9" d="M 809.390625 540.648438 C 809.390625 609.273438 753.703125 664.863281 684.96875 664.863281 L 187.238281 664.863281 C 84.1875 664.863281 0.515625 581.476562 0.515625 478.609375 C 0.515625 375.613281 84.1875 292.226562 187.238281 292.226562 C 197.992188 292.226562 208.621094 293.164062 218.976562 294.914062 C 261.617188 219.175781 342.875 168.011719 436.097656 168.011719 C 573.578125 168.011719 684.96875 279.191406 684.96875 416.441406 C 753.703125 416.441406 809.390625 472.035156 809.390625 540.648438 " fill-opacity="1" fill-rule="nonzero"/></g><path fill="#d9d9d9" d="M 598.167969 167.734375 L 584.390625 173.035156 L 668.511719 390.6875 L 682.292969 385.382812 C 742.53125 362.210938 772.535156 294.707031 749.308594 234.601562 C 726.078125 174.496094 658.410156 144.558594 598.167969 167.734375 " fill-opacity="1" fill-rule="nonzero"/><path fill="#a6a6a6" d="M 730.746094 241.742188 C 753.972656 301.839844 723.96875 369.351562 663.726562 392.527344 C 603.484375 415.707031 535.816406 385.773438 512.582031 325.664062 C 489.355469 265.566406 519.355469 198.054688 579.597656 174.878906 C 639.847656 151.699219 707.519531 181.640625 730.746094 241.742188 " fill-opacity="1" fill-rule="nonzero"/><path fill="#d9d9d9" d="M 644.652344 323.65625 C 648.707031 321.15625 651.484375 317.773438 652.984375 313.484375 C 654.46875 309.195312 654.382812 304.871094 652.695312 300.503906 C 651.1875 296.601562 648.734375 293.679688 645.332031 291.742188 C 641.933594 289.808594 637.324219 289.082031 631.488281 289.597656 Z M 596.050781 235.636719 C 593.054688 238.113281 591.078125 241.144531 590.117188 244.726562 C 589.152344 248.304688 589.316406 251.789062 590.621094 255.164062 C 591.816406 258.257812 593.859375 260.757812 596.753906 262.6875 C 599.636719 264.617188 603.300781 265.671875 607.722656 265.839844 Z M 631.488281 327.316406 L 617.34375 290.722656 C 604.640625 291.863281 594.355469 290.164062 586.453125 285.613281 C 578.566406 281.050781 572.789062 274.058594 569.152344 264.628906 C 565.460938 255.082031 565.378906 245.894531 568.910156 237.082031 C 572.4375 228.277344 579.035156 221.4375 588.691406 216.585938 L 585.347656 207.941406 L 598.039062 203.058594 L 601.382812 211.707031 C 611.082031 209.242188 619.683594 209.5625 627.183594 212.660156 C 634.691406 215.773438 640.882812 221.378906 645.769531 229.542969 L 624.742188 240.9375 C 620.742188 234.582031 615.4375 231.273438 608.839844 231.007812 L 622.042969 265.152344 C 637.503906 263.546875 648.941406 264.777344 656.34375 268.851562 C 663.753906 272.921875 669.269531 279.675781 672.921875 289.109375 C 676.992188 299.652344 677.230469 309.757812 673.632812 319.417969 C 670.03125 329.113281 662.851562 336.945312 652.117188 342.960938 L 658.421875 359.292969 L 645.730469 364.167969 L 639.59375 348.28125 C 629.015625 350.933594 619.367188 350.339844 610.632812 346.476562 C 601.902344 342.609375 594.453125 335.273438 588.261719 324.484375 L 610.160156 313.253906 C 612.894531 317.542969 616.191406 320.886719 620.074219 323.292969 C 623.941406 325.667969 627.75 327.011719 631.488281 327.316406 " fill-opacity="1" fill-rule="nonzero"/><path fill="#a6a6a6" d="M 638.882812 166.230469 C 635.90625 165.890625 632.910156 165.640625 629.902344 165.53125 L 640.898438 161.304688 C 644.136719 161.304688 647.371094 161.417969 650.574219 161.695312 L 650.445312 161.777344 L 638.882812 166.230469 " fill-opacity="1" fill-rule="nonzero"/><path fill="#a6a6a6" d="M 651.640625 168.371094 C 649.261719 167.820312 646.859375 167.390625 644.453125 166.996094 L 656.496094 162.355469 C 658.496094 162.632812 660.484375 162.964844 662.464844 163.34375 C 662.308594 163.914062 661.921875 164.410156 661.324219 164.640625 L 651.640625 168.371094 " fill-opacity="1" fill-rule="nonzero"/><path fill="#a6a6a6" d="M 608.261719 166.804688 L 614.714844 164.320312 C 620.667969 162.933594 626.652344 162.015625 632.609375 161.585938 L 622.367188 165.53125 C 617.671875 165.667969 612.972656 166.085938 608.261719 166.804688 " fill-opacity="1" fill-rule="nonzero"/><path fill="#a6a6a6" d="M 662.289062 171.332031 C 660.285156 170.664062 658.25 170.074219 656.210938 169.523438 L 668.683594 164.71875 C 670.261719 165.109375 671.839844 165.527344 673.394531 165.988281 C 673.292969 166.660156 672.878906 167.25 672.207031 167.511719 L 662.289062 171.332031 " fill-opacity="1" fill-rule="nonzero"/><path fill="#a6a6a6" d="M 671.535156 174.820312 C 669.785156 174.070312 668.011719 173.375 666.230469 172.722656 L 679.011719 167.804688 C 680.667969 168.382812 682.3125 168.996094 683.953125 169.652344 C 683.738281 169.960938 683.460938 170.238281 683.082031 170.378906 L 671.535156 174.820312 " fill-opacity="1" fill-rule="nonzero"/><path fill="#a6a6a6" d="M 679.777344 178.699219 C 678.222656 177.898438 676.632812 177.121094 675.039062 176.378906 L 688.054688 171.375 C 689.671875 172.09375 691.277344 172.859375 692.871094 173.664062 L 679.777344 178.699219 " fill-opacity="1" fill-rule="nonzero"/><path fill="#a6a6a6" d="M 687.203125 182.890625 C 685.808594 182.03125 684.390625 181.1875 682.953125 180.390625 L 696.050781 175.34375 C 697.507812 176.144531 698.949219 176.972656 700.382812 177.824219 L 687.203125 182.890625 " fill-opacity="1" fill-rule="nonzero"/><path fill="#a6a6a6" d="M 693.925781 187.371094 C 692.648438 186.457031 691.347656 185.574219 690.039062 184.714844 L 703.285156 179.625 C 704.609375 180.472656 705.925781 181.34375 707.226562 182.25 L 693.925781 187.371094 " fill-opacity="1" fill-rule="nonzero"/><path fill="#a6a6a6" d="M 700.050781 192.0625 C 698.890625 191.109375 697.726562 190.175781 696.527344 189.261719 L 709.832031 184.15625 C 711.039062 185.054688 712.226562 185.976562 713.40625 186.925781 L 700.050781 192.0625 " fill-opacity="1" fill-rule="nonzero"/><path fill="#a6a6a6" d="M 705.679688 196.949219 C 704.613281 195.957031 703.527344 194.996094 702.429688 194.054688 L 715.832031 188.890625 C 716.9375 189.835938 718.007812 190.804688 719.082031 191.789062 L 705.679688 196.949219 " fill-opacity="1" fill-rule="nonzero"/><path fill="#a6a6a6" d="M 710.78125 202.039062 C 709.8125 201.015625 708.816406 200.015625 707.816406 199.035156 L 721.25 193.859375 C 722.273438 194.84375 723.277344 195.832031 724.257812 196.859375 L 710.78125 202.039062 " fill-opacity="1" fill-rule="nonzero"/><path fill="#a6a6a6" d="M 742.492188 288.746094 C 742.574219 287.347656 742.640625 285.945312 742.667969 284.535156 L 756.140625 279.351562 C 756.101562 280.761719 756.019531 282.175781 755.933594 283.578125 L 742.492188 288.746094 " fill-opacity="1" fill-rule="nonzero"/><path fill="#a6a6a6" d="M 741.855469 296.046875 C 742.027344 294.605469 742.191406 293.164062 742.316406 291.726562 L 755.710938 286.570312 C 755.582031 288.015625 755.441406 289.457031 755.257812 290.898438 L 741.855469 296.046875 " fill-opacity="1" fill-rule="nonzero"/><path fill="#a6a6a6" d="M 740.699219 303.542969 C 740.972656 302.070312 741.210938 300.597656 741.429688 299.117188 L 754.785156 293.980469 C 754.550781 295.472656 754.292969 296.945312 754 298.425781 L 740.699219 303.542969 " fill-opacity="1" fill-rule="nonzero"/><path fill="#a6a6a6" d="M 738.957031 311.265625 C 739.351562 309.742188 739.710938 308.234375 740.050781 306.703125 L 753.351562 301.585938 C 752.996094 303.121094 752.605469 304.640625 752.195312 306.175781 L 738.957031 311.265625 " fill-opacity="1" fill-rule="nonzero"/><path fill="#a6a6a6" d="M 736.613281 319.222656 C 737.136719 317.664062 737.617188 316.078125 738.074219 314.515625 L 751.25 309.445312 C 750.769531 311.03125 750.257812 312.617188 749.710938 314.183594 L 736.613281 319.222656 " fill-opacity="1" fill-rule="nonzero"/><path fill="#a6a6a6" d="M 739.386719 254.683594 C 739.074219 253.414062 738.773438 252.164062 738.421875 250.90625 L 752.007812 245.683594 C 752.347656 246.9375 752.652344 248.199219 752.960938 249.464844 L 739.386719 254.683594 " fill-opacity="1" fill-rule="nonzero"/><path fill="#a6a6a6" d="M 740.78125 261.195312 C 740.546875 259.910156 740.316406 258.621094 740.03125 257.335938 L 753.601562 252.125 C 753.871094 253.402344 754.109375 254.691406 754.34375 255.976562 L 740.78125 261.195312 " fill-opacity="1" fill-rule="nonzero"/><path fill="#a6a6a6" d="M 737.636719 248.308594 C 737.25 247.070312 736.867188 245.835938 736.457031 244.617188 L 750.042969 239.382812 C 750.457031 240.613281 750.847656 241.839844 751.210938 243.074219 L 737.636719 248.308594 " fill-opacity="1" fill-rule="nonzero"/><path fill="#a6a6a6" d="M 735.535156 242.058594 C 735.304688 241.429688 735.105469 240.789062 734.863281 240.164062 C 734.636719 239.578125 734.378906 239.03125 734.144531 238.445312 L 747.738281 233.21875 C 747.96875 233.792969 748.222656 234.34375 748.445312 234.933594 C 748.691406 235.554688 748.902344 236.199219 749.125 236.824219 L 735.535156 242.058594 " fill-opacity="1" fill-rule="nonzero"/><path fill="#a6a6a6" d="M 733.105469 235.941406 C 732.589844 234.75 732.050781 233.574219 731.503906 232.414062 L 745.09375 227.183594 C 745.636719 228.355469 746.183594 229.519531 746.691406 230.710938 L 733.105469 235.941406 " fill-opacity="1" fill-rule="nonzero"/><path fill="#a6a6a6" d="M 730.332031 229.96875 C 729.75 228.792969 729.136719 227.648438 728.519531 226.511719 L 742.09375 221.289062 C 742.710938 222.429688 743.332031 223.566406 743.917969 224.738281 L 730.332031 229.96875 " fill-opacity="1" fill-rule="nonzero"/><path fill="#a6a6a6" d="M 727.214844 224.101562 C 726.558594 222.964844 725.867188 221.851562 725.175781 220.734375 L 738.738281 215.519531 C 739.433594 216.636719 740.125 217.742188 740.78125 218.890625 L 727.214844 224.101562 " fill-opacity="1" fill-rule="nonzero"/><path fill="#a6a6a6" d="M 723.703125 218.40625 C 722.988281 217.292969 722.242188 216.1875 721.476562 215.113281 L 735.023438 209.902344 C 735.785156 210.980469 736.527344 212.082031 737.253906 213.179688 L 723.703125 218.40625 " fill-opacity="1" fill-rule="nonzero"/><path fill="#a6a6a6" d="M 719.828125 212.839844 C 719.03125 211.765625 718.230469 210.675781 717.398438 209.628906 L 730.90625 204.441406 C 731.746094 205.480469 732.550781 206.558594 733.355469 207.632812 L 719.828125 212.839844 " fill-opacity="1" fill-rule="nonzero"/><path fill="#a6a6a6" d="M 715.5625 207.425781 C 714.6875 206.375 713.796875 205.332031 712.886719 204.324219 L 726.355469 199.136719 C 727.273438 200.140625 728.183594 201.183594 729.070312 202.238281 L 715.5625 207.425781 " fill-opacity="1" fill-rule="nonzero"/><path fill="#a6a6a6" d="M 741.824219 267.855469 C 741.660156 266.539062 741.464844 265.226562 741.253906 263.921875 L 754.8125 258.707031 C 755.011719 260.015625 755.210938 261.332031 755.371094 262.636719 L 741.824219 267.855469 " fill-opacity="1" fill-rule="nonzero"/><path fill="#a6a6a6" d="M 742.472656 274.652344 C 742.386719 273.3125 742.25 271.984375 742.121094 270.636719 L 755.648438 265.4375 C 755.773438 266.777344 755.898438 268.117188 755.972656 269.460938 L 742.472656 274.652344 " fill-opacity="1" fill-rule="nonzero"/><path fill="#a6a6a6" d="M 742.691406 281.613281 C 742.683594 280.253906 742.644531 278.882812 742.59375 277.511719 L 756.097656 272.320312 C 756.148438 273.691406 756.164062 275.070312 756.167969 276.429688 L 742.691406 281.613281 " fill-opacity="1" fill-rule="nonzero"/><path fill="#a6a6a6" d="M 733.445312 327.492188 C 734.132812 325.863281 734.785156 324.246094 735.394531 322.589844 L 748.484375 317.5625 C 747.847656 319.210938 747.167969 320.863281 746.453125 322.488281 L 733.445312 327.492188 " fill-opacity="1" fill-rule="nonzero"/><path fill="#a6a6a6" d="M 729.378906 336.109375 C 730.257812 334.425781 731.101562 332.71875 731.902344 330.992188 L 743.441406 326.546875 C 743.640625 326.472656 743.84375 326.441406 744.042969 326.441406 C 744.21875 326.441406 744.402344 326.464844 744.574219 326.503906 C 743.804688 328.085938 742.996094 329.640625 742.160156 331.1875 L 729.378906 336.109375 " fill-opacity="1" fill-rule="nonzero"/><path fill="#a6a6a6" d="M 724.105469 345.1875 C 725.246094 343.40625 726.355469 341.609375 727.40625 339.777344 L 737.308594 335.964844 C 737.53125 335.878906 737.753906 335.84375 737.972656 335.84375 C 738.429688 335.84375 738.863281 336.003906 739.21875 336.289062 C 738.367188 337.675781 737.488281 339.035156 736.585938 340.390625 L 724.105469 345.1875 " fill-opacity="1" fill-rule="nonzero"/><path fill="#a6a6a6" d="M 717.089844 354.941406 C 718.613281 353.035156 720.101562 351.097656 721.5 349.101562 L 731.183594 345.378906 C 731.402344 345.292969 731.617188 345.257812 731.835938 345.257812 C 732.214844 345.257812 732.578125 345.375 732.894531 345.578125 C 731.6875 347.179688 730.4375 348.761719 729.140625 350.3125 L 717.089844 354.941406 " fill-opacity="1" fill-rule="nonzero"/><path fill="#a6a6a6" d="M 707.296875 365.769531 C 709.445312 363.664062 711.507812 361.484375 713.480469 359.230469 L 725.050781 354.78125 L 725.203125 354.761719 C 723.003906 357.105469 720.691406 359.355469 718.285156 361.527344 L 707.296875 365.769531 " fill-opacity="1" fill-rule="nonzero"/><path fill="#a6a6a6" d="M 690.402344 379.308594 C 694.371094 376.6875 698.148438 373.847656 701.714844 370.804688 L 711.957031 366.875 C 707.25 370.539062 702.203125 373.875 696.847656 376.828125 L 690.402344 379.308594 " fill-opacity="1" fill-rule="nonzero"/><g clip-path="url(#125c0a4a8f)"><path fill="#ffffff" d="M 405.988281 352.863281 C 364.363281 352.863281 340.757812 376.214844 340.085938 410.015625 L 340.085938 411.707031 L 376.832031 411.707031 L 376.832031 410.015625 C 377.640625 395.085938 387.953125 385.453125 403.546875 385.453125 C 419.003906 385.453125 429.308594 394.398438 429.308594 407.027344 C 429.308594 419.652344 424.019531 426.171875 406.53125 436.628906 C 387.816406 447.625 380.351562 459.84375 382.113281 481.566406 L 382.328125 487.363281 L 418.320312 487.363281 L 418.320312 481.84375 C 418.320312 468.816406 423.34375 462.148438 441.378906 451.699219 C 460.496094 440.429688 470.386719 426.179688 470.386719 405.8125 C 470.386719 374.449219 444.769531 352.863281 405.988281 352.863281 Z M 401.101562 512.582031 C 387.308594 512.582031 378.703125 520.597656 378.703125 533.660156 C 378.703125 546.609375 387.316406 554.613281 401.101562 554.613281 C 414.890625 554.613281 423.386719 546.609375 423.386719 533.660156 C 423.386719 520.597656 414.898438 512.582031 401.101562 512.582031 Z M 401.101562 512.582031 " fill-opacity="1" fill-rule="nonzero"/></g></svg>